<?xml version="1.0" encoding="UTF-8" standalone="no"?>
<svg
   xmlns:dc="http://purl.org/dc/elements/1.1/"
   xmlns:cc="http://creativecommons.org/ns#"
   xmlns:rdf="http://www.w3.org/1999/02/22-rdf-syntax-ns#"
   xmlns:svg="http://www.w3.org/2000/svg"
   xmlns="http://www.w3.org/2000/svg"
   xmlns:sodipodi="http://sodipodi.sourceforge.net/DTD/sodipodi-0.dtd"
   xmlns:inkscape="http://www.inkscape.org/namespaces/inkscape"
   height="273"
   width="273"
   id="svg4"
   version="1.1"
   viewBox="0 0 273 273"
   sodipodi:docname="agendar.svg"
   inkscape:version="0.92.3 (2405546, 2018-03-11)">
  <sodipodi:namedview
     pagecolor="#ffffff"
     bordercolor="#666666"
     borderopacity="1"
     objecttolerance="10"
     gridtolerance="10"
     guidetolerance="10"
     inkscape:pageopacity="0"
     inkscape:pageshadow="2"
     inkscape:window-width="1280"
     inkscape:window-height="657"
     id="namedview8"
     showgrid="false"
     inkscape:zoom="0.86446886"
     inkscape:cx="136.5"
     inkscape:cy="136.5"
     inkscape:window-x="-8"
     inkscape:window-y="-8"
     inkscape:window-maximized="1"
     inkscape:current-layer="svg4" />
  <metadata
     id="metadata10">
    <rdf:RDF>
      <cc:Work
         rdf:about="">
        <dc:format>image/svg+xml</dc:format>
        <dc:type
           rdf:resource="http://purl.org/dc/dcmitype/StillImage" />
        <dc:title />
      </cc:Work>
    </rdf:RDF>
  </metadata>
  <defs
     id="defs8" />
  <text
     id="text819"
     y="204.23846"
     x="16.023071"
     style="font-style:normal;font-variant:normal;font-weight:normal;font-stretch:normal;font-size:30.15384674px;line-height:1.25;font-family:'Agency FB';-inkscape-font-specification:'Agency FB';letter-spacing:0px;word-spacing:0px;fill:#e7d3b1;fill-opacity:1;stroke:none;stroke-width:0.75384617;"
     xml:space="preserve"><tspan
       style="font-style:normal;font-variant:normal;font-weight:normal;font-stretch:normal;font-size:48px;font-family:sans-serif;-inkscape-font-specification:sans-serif;stroke-width:0.75384617;fill:#e7d3b1;fill-opacity:1;"
       y="204.23846"
       x="16.023071"
       id="tspan817">AGENDAR</tspan></text>
  <path
     style="stroke-width:0.171875;fill:#e7d3b1;fill-opacity:0.97989953"
     id="path2"
     d="m 178.75,63 h -71.5 C 102.69359,63 99,66.693597 99,71.25 v 49.5 c 0,4.55639 3.69359,8.25 8.25,8.25 h 71.5 c 4.55641,0 8.25,-3.69361 8.25,-8.25 V 71.25 C 187,66.693597 183.30641,63 178.75,63 Z m -49.5,13.750003 c 6.64469,0 12.03125,5.38656 12.03125,12.031247 0,6.644682 -5.38656,12.03125 -12.03125,12.03125 -6.64469,0 -12.03125,-5.386568 -12.03125,-12.03125 0,-6.644687 5.38656,-12.031247 12.03125,-12.031247 z m 19.25,34.890617 c 0,1.99341 -1.61598,3.60938 -3.60937,3.60938 H 113.60937 C 111.61596,115.25 110,113.63403 110,111.64062 v -2.78556 c 0,-3.31238 2.25431,-6.19988 5.46785,-7.00324 l 5.3625,-1.34062 c 4.37663,3.14807 11.2054,4.0523 16.83929,0 l 5.3625,1.34062 c 3.21354,0.80336 5.46786,3.69068 5.46786,7.00324 z M 176,104.9375 c 0,1.13902 -0.92348,2.0625 -2.0625,2.0625 h -17.875 C 154.92348,107 154,106.07652 154,104.9375 v -1.375 c 0,-1.13901 0.92348,-2.0625 2.0625,-2.0625 h 17.875 c 1.13902,0 2.0625,0.92349 2.0625,2.0625 z m 0,-11 C 176,95.076517 175.07652,96 173.9375,96 h -17.875 C 154.92348,96 154,95.076517 154,93.9375 v -1.375 c 0,-1.139017 0.92348,-2.0625 2.0625,-2.0625 h 17.875 c 1.13902,0 2.0625,0.923483 2.0625,2.0625 z m 0,-10.999997 C 176,84.076519 175.07652,85 173.9375,85 h -17.875 C 154.92348,85 154,84.076519 154,82.937503 V 81.5625 c 0,-1.139017 0.92348,-2.0625 2.0625,-2.0625 h 17.875 c 1.13902,0 2.0625,0.923483 2.0625,2.0625 z" />
</svg>
