<?xml version="1.0" encoding="UTF-8" standalone="no"?>
<svg
   xmlns:osb="http://www.openswatchbook.org/uri/2009/osb"
   xmlns:dc="http://purl.org/dc/elements/1.1/"
   xmlns:cc="http://creativecommons.org/ns#"
   xmlns:rdf="http://www.w3.org/1999/02/22-rdf-syntax-ns#"
   xmlns:svg="http://www.w3.org/2000/svg"
   xmlns="http://www.w3.org/2000/svg"
   xmlns:sodipodi="http://sodipodi.sourceforge.net/DTD/sodipodi-0.dtd"
   xmlns:inkscape="http://www.inkscape.org/namespaces/inkscape"
   height="273"
   width="273"
   id="svg4"
   version="1.1"
   viewBox="0 0 273 273"
   sodipodi:docname="planos.svg"
   inkscape:version="0.92.3 (2405546, 2018-03-11)">
  <sodipodi:namedview
     pagecolor="#ffffff"
     bordercolor="#666666"
     borderopacity="1"
     objecttolerance="10"
     gridtolerance="10"
     guidetolerance="10"
     inkscape:pageopacity="0"
     inkscape:pageshadow="2"
     inkscape:window-width="1280"
     inkscape:window-height="657"
     id="namedview8"
     showgrid="false"
     inkscape:zoom="0.86446886"
     inkscape:cx="-51.476696"
     inkscape:cy="136.5"
     inkscape:window-x="-8"
     inkscape:window-y="-8"
     inkscape:window-maximized="1"
     inkscape:current-layer="svg4" />
  <metadata
     id="metadata10">
    <rdf:RDF>
      <cc:Work
         rdf:about="">
        <dc:format>image/svg+xml</dc:format>
        <dc:type
           rdf:resource="http://purl.org/dc/dcmitype/StillImage" />
        <dc:title />
      </cc:Work>
    </rdf:RDF>
  </metadata>
  <defs
     id="defs8">
    <linearGradient
       id="linearGradient817"
       osb:paint="solid">
      <stop
         style="stop-color:#e7d3b1;stop-opacity:1;"
         offset="0"
         id="stop815" />
    </linearGradient>
  </defs>
  <text
     id="text819"
     y="204.23846"
     x="42.023071"
     style="font-style:normal;font-variant:normal;font-weight:normal;font-stretch:normal;font-size:30.15384674px;line-height:1.25;font-family:'Agency FB';-inkscape-font-specification:'Agency FB';letter-spacing:0px;word-spacing:0px;fill:#e7d3b1;fill-opacity:1;stroke:none;stroke-width:0.75384617;"
     xml:space="preserve"><tspan
       style="font-style:normal;font-variant:normal;font-weight:normal;font-stretch:normal;font-size:48px;font-family:sans-serif;-inkscape-font-specification:sans-serif;stroke-width:0.75384617;fill:#e7d3b1;fill-opacity:1;"
       y="204.23846"
       x="42.023071"
       id="tspan817">PLANOS</tspan></text>
  <path
     style="stroke-width:0.12109375;fill:#e7d3b1;fill-opacity:1"
     id="path2-7"
     d="m 130.42856,85.714284 c 0,-2.825966 2.60787,-4.65206 6.64381,-4.65206 3.23635,0 6.55311,1.484977 9.25895,3.430951 0.71203,0.512107 1.71105,0.285057 2.12822,-0.486436 l 2.852,-5.273507 c 0.32078,-0.59312 0.19327,-1.330939 -0.31182,-1.777656 -2.94027,-2.600732 -7.16088,-4.128088 -11.05452,-4.578073 v -5.720346 c 0,-0.802487 -0.65064,-1.453125 -1.45312,-1.453125 h -4.84375 c -0.8025,0 -1.45313,0.650638 -1.45313,1.453125 v 6.034344 c -7.09937,1.609332 -11.78231,6.7712 -11.78231,13.155502 0,14.959077 22.37389,13.418397 22.37389,20.514977 0,2.40044 -1.97516,4.98398 -6.31189,4.98398 -3.72375,0 -7.62067,-1.92297 -10.63784,-4.34569 -0.643,-0.51635 -1.58415,-0.40143 -2.07785,0.25914 l -3.67992,4.92452 c -0.4392,0.58779 -0.37236,1.41159 0.15767,1.91897 2.91218,2.78757 7.17468,4.99572 11.95813,5.80922 v 5.83879 c 0,0.80249 0.65063,1.45312 1.45312,1.45312 h 4.84375 c 0.80248,0 1.45313,-0.65063 1.45313,-1.45312 v -5.74445 c 7.95828,-1.23697 12.85725,-7.16705 12.85725,-14.10937 1.2e-4,-14.493451 -22.37377,-12.558261 -22.37377,-20.182806 z" />
</svg>
